<?xml version="1.0" encoding="utf-8"?>
<!-- Generator: Adobe Illustrator 16.0.4, SVG Export Plug-In . SVG Version: 6.00 Build 0)  -->
<!DOCTYPE svg PUBLIC "-//W3C//DTD SVG 1.1//EN" "http://www.w3.org/Graphics/SVG/1.1/DTD/svg11.dtd">
<svg version="1.1" id="Layer_1" xmlns="http://www.w3.org/2000/svg" xmlns:xlink="http://www.w3.org/1999/xlink" x="0px" y="0px"
	 width="500px" height="500px" viewBox="0 0 500 500" enable-background="new 0 0 500 500" xml:space="preserve">
<g>
	<path fill="#FFFFFF" d="M237.605,2.279c7.505,0,15.008,0,22.51,0c2.297,0.86,4.73,0.538,7.083,0.708
		c15.023,1.069,29.842,3.453,44.373,7.34c49.136,13.141,90.533,38.827,124.03,77.095c24.859,28.401,42.229,60.874,52.2,97.286
		c4.157,15.189,6.801,30.63,7.985,46.338c0.162,2.213-0.109,4.499,0.713,6.651c0,8.055,0,16.111,0,24.167
		c-0.538,0.199-0.377,0.673-0.396,1.053c-0.438,10.182-1.617,20.291-3.429,30.306c-4.422,24.4-12.246,47.662-23.668,69.709
		c-13.985,26.996-32.262,50.667-54.9,70.936c-28.166,25.223-60.432,43.16-96.773,53.669c-16.863,4.876-34.072,7.871-51.604,9.034
		c-2.7,0.181-5.465-0.147-8.114,0.709c-5.975,0-11.95,0-17.924,0c-0.136-0.438-0.506-0.39-0.841-0.39
		c-4.025-0.036-8.028-0.454-12.033-0.779c-13.622-1.114-27.039-3.437-40.235-6.938c-44.949-11.918-83.602-34.611-115.896-68.061
		c-26.088-27.02-44.979-58.423-56.844-94.026c-4.837-14.507-8.218-29.371-10.197-44.551c-1.131-8.667-1.818-17.356-2.12-26.086
		c-0.007-4.447-0.02-8.889-0.023-13.34c0.042-0.345,0.113-0.686,0.113-1.027c0.209-12.503,1.611-24.894,3.876-37.166
		c3.8-20.588,10.091-40.406,18.985-59.386c16.829-35.916,40.876-66.118,72.039-90.609c24.235-19.045,51.157-33.049,80.689-41.993
		c17.409-5.273,35.179-8.594,53.329-9.924C232.89,2.83,235.313,3.129,237.605,2.279z M68.599,249.802
		c-0.284,97.747,78.704,179.907,179.682,180.229c100.686,0.318,179.544-80.229,181.087-177.228
		c1.605-101.203-79.615-183.234-180.159-183.405C149.294,69.231,68.599,149.968,68.599,249.802z M267.127,464.262
		c0-5.137,0-10.273,0-15.411c0-4.957,0-4.908-4.872-4.857c-1.257,0.017-1.721,0.316-1.67,1.633c0.097,2.635,0,5.276,0.043,7.914
		c0.016,0.969-0.113,1.54-1.325,1.527c-1.192-0.017-1.604-0.429-1.534-1.589c0.071-1.176,0.065-2.363,0.007-3.539
		c-0.11-1.923,0.873-4.616-0.396-5.569c-1.305-0.979-3.857-0.31-5.862-0.338c-0.393-0.003-0.889-0.165-1.147,0.251
		c-0.374,0.622,0.309,0.809,0.58,1.149c0.542,0.68,0.78,1.453,0.78,2.307c0,7.359-0.013,14.716,0.02,22.076
		c0.007,1.036-0.258,1.498-1.386,1.481c-4.238-0.049-8.476-0.042-12.71,0c-0.974,0.01-1.322-0.255-1.315-1.275
		c0.039-6.245,0.035-12.497,0-18.742c-0.003-0.915,0.296-1.205,1.192-1.176c1.875,0.055,3.751,0.017,5.627,0.017
		c3.861,0,4.028-0.22,3.561-4.075c-0.081-0.683-0.267-1.015-0.973-1.008c-5.488,0.003-10.973,0-16.461,0
		c-0.996,0-1.192,0.422-0.467,1.085c1.103,1.019,1.115,2.316,1.115,3.64c0,8.262,0.033,16.523-0.032,24.784
		c-0.013,1.443,0.38,1.879,1.85,1.855c5.343-0.087,10.693-0.032,16.042-0.032c3.942,0,3.942,0,3.942,3.853
		c0,4.097,0.003,4.01,4.141,4.106c1.604,0.039,1.96-0.457,1.94-1.981c-0.074-6.802-0.026-13.604-0.033-20.407
		c-0.006-0.988-0.174-1.857,1.393-1.877c1.524-0.02,1.454,0.76,1.45,1.8c-0.025,5.9-0.013,11.805-0.013,17.702
		c0,4.809,0,4.734,4.767,4.764c1.575,0.01,1.788-0.603,1.775-1.945C267.092,476.341,267.127,470.302,267.127,464.262z
		 M405.276,396.064c2.288-0.026,3.654,1.123,5.027,2.309c1.312,1.134,2.662,2.226,4.002,3.321c2.76,2.257,2.76,2.254,0.452,4.995
		c-2.398,2.848-2.347,2.789,0.502,5.188c0.96,0.812,1.399,0.639,2.076-0.231c1.411-1.801,2.91-3.533,4.37-5.295
		c5.891-7.096,11.749-14.217,17.695-21.271c0.898-1.064,0.911-1.681-0.223-2.396c-0.351-0.219-0.703-0.474-0.97-0.783
		c-1.157-1.33-2.156-1.446-3.064,0.262c-0.716,1.34-1.45,1.137-2.547,0.218c-7.271-6.115-14.638-12.119-21.895-18.249
		c-1.173-0.988-1.656-0.792-2.539,0.284c-5.798,7.079-11.614,14.152-17.558,21.112c-1.317,1.546-1.366,2.461,0.361,3.449
		c0.238,0.14,0.489,0.297,0.657,0.51c1.038,1.343,1.74,0.869,2.655-0.258c4.325-5.33,8.74-10.591,13.11-15.886
		c1.701-2.058,1.675-2.058,3.677-0.393c5.385,4.483,10.767,8.967,16.168,13.431c2.732,2.255,2.707,2.193,0.402,4.89
		c-0.737,0.863-1.163,0.782-1.943,0.105c-2.04-1.771-4.15-3.465-6.248-5.172c-3.561-2.902-3.51-2.845-6.504,0.566
		c-0.977,1.115-0.725,1.623,0.269,2.419c3.189,2.558,6.319,5.192,9.468,7.794c-1.831,2.609-1.833,2.609-4.209,0.651
		c-2.564-2.115-5.117-4.251-7.702-6.349c-0.306-0.247-0.625-0.994-1.153-0.387C408.132,392.592,406.717,394.338,405.276,396.064z
		 M84.996,364.448c-2.855,0.206-5.421,0.931-7.432,2.976c-3.367,3.425-4.105,7.508-2.52,11.892
		c1.714,4.719,5.118,7.753,10.206,8.358c1.802,0.215,3.149,0.705,4.167,2.184c1.019,1.476,3.352,2.686,3.139,4.135
		c-0.203,1.376-2.366,2.5-3.719,3.669c-3.799,3.285-3.783,3.247-0.451,6.96c0.809,0.902,1.263,1.089,2.269,0.19
		c5.333-4.757,10.754-9.417,16.126-14.129c1.508-1.318,4.061-2.645,4.132-4.068c0.077-1.466-2.282-3.063-3.593-4.59
		c-0.39-0.451-0.68-1.221-1.382-1.086c-0.748,0.146-0.345,0.929-0.458,1.428c-0.258,1.101-0.992,1.961-1.92,2.322
		c-0.916,0.351-1.273-0.828-1.812-1.372c-0.928-0.936-1.688-2.029-2.624-2.958c-1.127-1.127-1.637-2.325-1.746-3.999
		C96.952,369.736,91.312,364.475,84.996,364.448z M63.955,185.195c-0.074-1.195-0.074-2.029-0.177-2.854
		c-0.851-6.841-4.615-11.653-10.722-14.513c-6.178-2.896-12.429-3.32-18.292,0.938c-4.115,2.992-6.397,7.25-7.57,12.062
		c-1.82,7.469-0.683,14.291,5.588,19.374c6.084,4.938,13.026,6.2,20.225,2.886C60.658,199.573,63.275,192.706,63.955,185.195z
		 M416.613,93.722c-0.064-2.46-1.45-4.779-3.342-6.76c-3.457-3.61-7.031-7.108-10.563-10.645c-0.361-0.36-0.651-0.957-1.324-0.302
		c-0.574,0.554-0.522,0.876-0.029,1.517c1.666,2.162,1.586,2.664-0.294,4.561c-5.762,5.82-11.562,11.601-17.272,17.47
		c-2.527,2.596-2.463,2.703-5.453,0.786c-0.574-0.364-0.835-0.193-1.212,0.174c-0.419,0.405-0.528,0.74-0.055,1.201
		c3.423,3.353,6.829,6.719,10.238,10.081c0.31,0.31,0.619,0.586,0.992,0.093c0.232-0.302,0.787-0.512,0.478-1.001
		c-0.258-0.399-0.664-0.705-0.993-1.063c-1.862-2.022-1.865-2.795,0.007-4.696c1.953-1.978,3.902-3.949,5.865-5.913
		c0.304-0.303,0.464-0.864,1.154-0.525c1.45,0.709,2.591,2.947,2.313,4.609c-0.496,3.005-1.115,6.007-1.399,9.031
		c-0.271,2.931-0.76,5.979,1.223,8.625c1.33,1.791,2.964,3.298,4.598,4.802c0.391,0.361,0.71,0.873,1.354,0.235
		c0.555-0.547,0.343-0.902-0.041-1.378c-1.042-1.292-1.482-2.822-1.55-4.442c-0.232-5.356,0.715-10.625,1.182-15.933
		c0.068-0.77,0.513-0.992,1.273-0.982c1.45,0.016,2.926,0.029,4.363-0.162C413.068,102.467,416.662,98.622,416.613,93.722z
		 M246.374,28.99c3.796,4.38,7.207,8.313,10.609,12.243c3.854,4.458,7.74,8.889,11.537,13.402c0.806,0.953,1.73,1.195,2.736,0.957
		c1.073-0.258,0.611-1.34,0.705-2.074c0.136-1.095,0.182-2.209,0.252-3.314c0.528-8.5,1.061-17.01,1.592-25.516
		c0.106-1.739,0.761-2.959,2.752-2.896c0.647,0.02,1.196,0.093,1.309-0.844c0.129-1.079-0.632-0.94-1.176-0.976
		c-3.319-0.232-6.643-0.422-9.968-0.605c-0.496-0.029-1.135-0.274-1.199,0.657c-0.058,0.844,0.329,0.957,1.066,1.088
		c2.891,0.519,3.517,1.344,3.361,4.201c-0.234,4.293-0.483,8.58-0.747,12.867c-0.14,2.162-0.336,4.316-0.529,6.787
		c-0.708-0.789-1.179-1.292-1.624-1.816c-6.825-7.943-13.667-15.873-20.444-23.851c-0.806-0.95-1.689-1.572-2.81-1.25
		c-1.283,0.36-0.683,1.652-0.741,2.506c-0.606,9.334-1.141,18.674-1.711,28.008c-0.145,2.338-0.941,3.146-3.136,3.285
		c-0.702,0.042-1.392-0.113-1.412,0.979c-0.019,1.127,0.832,0.744,1.322,0.779c3.384,0.265,6.774,0.497,10.164,0.664
		c0.625,0.033,1.608,0.661,1.854-0.534c0.287-1.404-0.893-1.073-1.608-1.202c-2.778-0.499-3.474-1.317-3.365-4.222
		c0.09-2.422,0.258-4.841,0.413-7.26C245.819,37.209,246.083,33.367,246.374,28.99z M54.561,144.251
		c7.592-1.714,14.592-3.298,21.592-4.876c3.919-0.879,7.834-1.769,11.763-2.59c1.122-0.232,1.695-1.011,1.998-1.897
		c0.352-1.031-0.793-1.13-1.36-1.498c-2.153-1.389-4.351-2.712-6.536-4.058c-5.953-3.678-11.911-7.35-17.86-11.038
		c-1.592-0.989-2.868-2.142-1.534-4.19c0.438-0.673,0.364-1.066-0.329-1.507c-0.799-0.509-0.964,0.135-1.231,0.563
		c-1.756,2.822-3.494,5.653-5.244,8.481c-0.325,0.525-0.795,0.969,0.042,1.542c0.825,0.563,1.044-0.029,1.444-0.512
		c1.888-2.29,2.681-2.438,5.278-0.854c4.086,2.483,8.141,5.015,12.208,7.527c1.427,0.879,2.855,1.758,4.611,2.841
		c-7.415,1.63-14.376,3.153-21.343,4.68c-4.125,0.908-8.241,1.862-12.382,2.693c-1.141,0.231-1.753,0.915-2.017,1.836
		c-0.271,0.966,0.818,1.06,1.373,1.407c5.933,3.707,11.892,7.375,17.841,11.054c2.243,1.386,4.505,2.729,6.716,4.162
		c1.521,0.986,2.501,2.232,1.373,4.145c-0.329,0.561-0.935,1.141,0.032,1.71c0.967,0.573,1.192-0.245,1.538-0.798
		c1.827-2.941,3.657-5.882,5.439-8.851c0.287-0.477,1.215-0.954,0.216-1.688c-1.032-0.757-1.26,0.125-1.683,0.715
		c-1.611,2.277-2.662,2.76-4.618,1.598C66.24,151.488,60.671,148,54.561,144.251z M208.301,58.992
		c2.758-0.083,6.7-0.889,10.009-3.666c4.557-3.826,4.976-8.918,4.103-14.243c-0.918-5.594-2.053-11.157-3.265-16.697
		c-0.416-1.91,0.271-2.696,1.94-3.176c0.503-0.142,1.573,0.167,1.238-1.111c-0.329-1.253-1.141-0.699-1.805-0.57
		c-3.19,0.622-6.371,1.282-9.555,1.926c-0.577,0.12-1.347,0-1.29,0.963c0.068,1.166,0.887,0.792,1.531,0.715
		c1.966-0.235,2.978,0.667,3.274,2.583c0.226,1.433,0.603,2.841,0.848,4.271c0.934,5.453,2.601,10.787,2.897,16.336
		c0.251,4.667-2.208,7.855-6.494,8.831c-4.451,1.012-8.041-0.798-9.929-5.102c-0.554-1.256-1.005-2.586-1.292-3.93
		c-1.267-5.881-2.446-11.778-3.677-17.667c-0.361-1.713,0.586-2.428,2.03-2.772c0.657-0.155,1.431-0.042,1.27-1.16
		c-0.187-1.269-1.044-0.667-1.573-0.567c-3.944,0.753-7.873,1.562-11.798,2.39c-0.499,0.103-1.395-0.155-1.169,0.953
		c0.184,0.867,0.734,0.78,1.411,0.751c2.501-0.106,3.023,0.335,3.468,2.767c0.138,0.747,0.264,1.498,0.435,2.238
		c1.286,5.656,1.897,11.476,3.754,16.997C196.725,56.203,200.676,59.002,208.301,58.992z M367.14,89.79
		c-0.29-0.023-0.522,0.019-0.703-0.062c-2.613-1.163-4.805-3.005-7.186-4.538c-0.677-0.428-0.02-0.851,0.208-1.195
		c1.254-1.913,2.523-3.817,3.813-5.707c1.127-1.659,2.03-4.3,3.5-4.681c1.688-0.432,3.418,1.93,5.197,2.97
		c1.47,0.86,2.44,1.932,1.061,3.636c-0.528,0.657-0.097,0.94,0.387,1.301c0.548,0.415,0.825,0.18,1.141-0.296
		c1.486-2.261,2.978-4.516,4.499-6.751c0.361-0.525,0.284-0.844-0.226-1.176c-0.471-0.306-0.896-0.431-1.23,0.139
		c-1.264,2.145-2.688,1.321-4.119,0.232c-1.534-1.156-4.231-1.839-4.389-3.42c-0.152-1.521,1.727-3.305,2.854-4.87
		c1.122-1.565,1.83-4.265,3.403-4.432c1.489-0.157,3.229,1.82,4.834,2.896c2.533,1.694,2.656,2.016,1.457,4.87
		c-0.29,0.692-0.161,1.005,0.38,1.347c0.587,0.373,0.863,0.022,1.153-0.425c0.877-1.331,1.689-2.712,2.685-3.952
		c0.896-1.121,0.603-1.675-0.505-2.399c-5.505-3.607-10.958-7.309-16.462-10.929c-0.5-0.328-1.031-1.417-1.856-0.345
		c-0.767,0.996,0.206,1.308,0.735,1.743c1.404,1.15,2.049,2.419,0.901,4.123c-4.988,7.424-9.958,14.858-14.952,22.275
		c-0.913,1.356-2.098,1.794-3.526,0.718c-0.664-0.505-1.157-0.87-1.775,0.155c-0.654,1.089,0.325,1.176,0.78,1.482
		c4.359,2.959,8.727,5.91,13.139,8.79c1.771,1.156,3.738,3.639,5.291,3.102c1.683-0.586,2.591-3.373,3.848-5.192
		c0.361-0.521,0.793-0.931,0-1.53c-0.773-0.58-1.069-0.123-1.476,0.383C369.24,88.991,368.352,89.732,367.14,89.79z M105.176,70.951
		c0.8-0.051,1.496,0.493,2.063,1.244c5.356,7.154,10.712,14.313,16.055,21.48c0.99,1.324,0.928,2.548-0.509,3.568
		c-0.519,0.371-1.286,0.635-0.574,1.569c0.664,0.866,1.144,0.393,1.708-0.025c5.658-4.236,11.311-8.484,16.996-12.684
		c0.722-0.535,0.857-0.893,0.271-1.621c-1.134-1.404-2.14-2.904-3.281-4.296c-0.335-0.409-0.393-1.472-1.469-0.86
		c-1.063,0.606-0.478,1.182-0.139,1.855c1.106,2.19,0.887,3.359-1.008,4.883c-1.566,1.259-3.232,2.399-4.795,3.659
		c-0.786,0.628-1.228,0.541-1.798-0.283c-1.347-1.933-2.813-3.785-4.193-5.691c-1.121-1.559-3.396-3.144-3.061-4.641
		c0.325-1.456,2.807-2.403,4.292-3.64c1.434-1.191,2.788-1.984,4.103,0.106c0.387,0.608,0.77,0.341,1.186,0.025
		c0.444-0.332,0.631-0.628,0.226-1.16c-1.686-2.203-3.339-4.428-4.996-6.651c-0.309-0.409-0.628-0.477-1.018-0.109
		c-0.332,0.318-0.916,0.563-0.425,1.15c1.94,2.31-0.007,3.247-1.521,4.335c-1.398,1.015-2.897,2.934-4.183,2.805
		c-1.469-0.154-2.301-2.496-3.345-3.93c-1.244-1.713-3.774-3.45-3.348-5.153c0.412-1.633,3.081-2.728,4.805-3.991
		c1.953-1.433,2.72-1.349,4.434,0.48c0.474,0.506,0.742,0.928,1.45,0.3c0.6-0.531,0.387-0.902,0.007-1.392
		c-1.096-1.43-2.191-2.854-3.236-4.322c-0.418-0.583-0.747-0.654-1.327-0.216c-5.646,4.252-11.312,8.484-16.971,12.726
		c-0.435,0.329-0.935,0.58-0.413,1.304c0.535,0.748,0.973,0.535,1.531,0.097C103.355,71.357,104.093,70.983,105.176,70.951z
		 M330.607,61.881c0.133-2.213,0.234-3.73,0.312-5.25c0.307-6.094,0.59-12.191,0.925-18.282c0.064-1.195-0.026-2.789,2.023-1.846
		c0.651,0.293,0.819-0.045,1.073-0.508c0.391-0.706,0.055-0.976-0.554-1.237c-3.626-1.556-7.248-3.114-10.851-4.722
		c-0.594-0.268-0.867-0.174-1.121,0.37c-0.232,0.493-0.326,0.896,0.29,1.189c2.294,1.082,2.441,3.137,2.403,5.295
		c-0.187,10.477-0.367,20.952-0.522,31.429c-0.013,0.767-0.38,1.704,0.667,2.196c1.073,0.506,1.516-0.435,2.073-0.947
		c7.947-7.244,15.878-14.513,23.803-21.789c1.571-1.439,3.229-2.4,5.433-1.397c0.335,0.151,0.87,0.415,1.031-0.181
		c0.132-0.47,0.478-1.104-0.28-1.439c-3.168-1.388-6.333-2.776-9.5-4.161c-0.442-0.193-0.812-0.161-0.99,0.371
		c-0.141,0.428-0.563,0.937,0.123,1.233c2.134,0.921,1.057,2.048,0.136,3.008c-2.643,2.754-5.363,5.44-8.051,8.152
		C336.356,56.067,333.685,58.77,330.607,61.881z M35.071,228.09c-4.815,2.177-9.14,4.174-13.51,6.061
		c-0.625,0.271-1.914,1.344-2.027-0.66c-0.042-0.673-0.722-0.538-1.17-0.542c-0.609-0.006-0.535,0.544-0.574,0.915
		c-0.38,3.794-0.741,7.592-1.115,11.386c-0.051,0.538,0.032,0.969,0.67,1.075c0.548,0.094,0.951-0.009,1.044-0.66
		c0.419-2.863,2.629-4.103,4.876-5.243c4.199-2.125,8.414-4.209,12.652-6.258c1.505-0.731,3.123-1.16,4.831-1.001
		c2.972,0.271,5.943,0.525,8.908,0.834c1.44,0.148,2.172,1.027,2.372,2.458c0.083,0.602-0.696,1.733,0.728,1.688
		c1.328-0.042,0.877-1.237,0.947-1.926c0.406-4,0.709-8.01,1.063-12.017c0.065-0.728,0.51-1.626-0.735-1.723
		c-1.269-0.1-0.667,0.982-0.78,1.504c-0.583,2.824-1.45,3.485-4.318,3.144c-1.032-0.129-2.069-0.265-3.107-0.284
		c-4.708-0.081-8.981-1.247-12.652-4.419c-2.25-1.942-4.799-3.537-7.142-5.379c-2.22-1.743-4.753-3.337-4.389-6.78
		c0.052-0.518-0.322-0.718-0.773-0.785c-0.464-0.071-0.851,0.012-0.902,0.566c-0.329,3.521-0.655,7.044-0.967,10.564
		c-0.045,0.496,0.238,0.757,0.747,0.776c0.406,0.013,0.896,0.167,0.983-0.432c0.325-2.235,1.724-1.172,2.54-0.657
		C27.126,222.737,30.9,225.313,35.071,228.09z M462.769,230.928c4.28-3.021,8.166-5.804,12.111-8.5
		c0.604-0.412,1.675-1.594,2.133,0.319c0.119,0.493,0.671,0.374,1.076,0.348c0.586-0.039,0.593-0.474,0.555-0.902
		c-0.374-3.862-0.752-7.727-1.122-11.592c-0.058-0.557-0.244-0.889-0.901-0.844c-0.58,0.039-0.938,0.207-0.884,0.85
		c0.231,2.754-1.582,4.319-3.455,5.782c-3.612,2.815-7.306,5.523-10.918,8.335c-1.934,1.504-4.099,2.264-6.503,2.477
		c-2.14,0.187-4.283,0.376-6.427,0.554c-2.906,0.241-3.145,0.138-3.957-2.625c-0.22-0.747-0.513-0.828-1.134-0.779
		c-0.793,0.062-0.594,0.596-0.548,1.057c0.432,4.419,0.857,8.831,1.337,13.244c0.058,0.528-0.165,1.442,0.79,1.417
		c1.089-0.029,0.767-0.908,0.767-1.569c0-3.008,0.48-3.601,3.516-3.977c2.613-0.329,5.243-0.538,7.867-0.786
		c1.54-0.145,3.035,0.048,4.473,0.65c4.538,1.9,8.985,3.981,13.336,6.274c2.123,1.117,4.124,2.393,4.401,5.115
		c0.064,0.653,0.477,0.731,1.025,0.702c0.482-0.025,0.799-0.154,0.741-0.715c-0.357-3.45-0.71-6.899-1.07-10.345
		c-0.049-0.448-0.206-0.821-0.78-0.708c-0.367,0.074-0.979-0.129-0.999,0.447c-0.07,2.31-1.663,1.537-2.648,1.147
		C471.38,234.654,467.273,232.841,462.769,230.928z M321.713,437.562c-2.014,6.519,1.404,11.146,6.052,12.6
		c5.984,1.872,12.801-1.424,15.024-7.221c2.05-5.347-0.097-9.972-5.92-12.591c0.319-0.225,0.57-0.45,0.86-0.602
		c3.07-1.582,3.074-1.578,1.499-4.636c-0.062-0.125-0.172-0.231-0.21-0.36c-0.264-0.911-0.757-0.979-1.56-0.563
		c-1.785,0.917-3.642,1.694-5.401,2.645c-1.244,0.67-2.011,0.59-2.424-0.879c-0.341-1.219-1.05-1.386-2.162-0.773
		c-1.45,0.802-2.994,1.439-4.464,2.203c-0.393,0.206-1.089,0.167-1.089,0.796c0,0.637,0.642,0.596,1.07,0.77
		c0.599,0.237,1.215,0.644,1.23,1.275c0.014,0.611-0.767,0.663-1.23,0.892c-1.425,0.702-2.862,1.382-4.3,2.052
		c-2.861,1.327-2.745,1.275-1.572,4.151c0.683,1.679,1.438,1.917,2.843,0.938C320.386,437.961,320.946,437.854,321.713,437.562z
		 M465.707,170.501c-1.708,0.226-3.235,0.348-4.718,0.673c-0.48,0.11-1.595-0.31-1.404,0.95c0.147,0.992,0.74,1.144,1.627,1.018
		c2.098-0.293,3.241,0.825,3.807,2.715c0.489,1.659,0.866,3.356,1.488,4.963c0.522,1.343,0.232,1.872-1.16,2.268
		c-8.115,2.328-16.203,4.75-24.305,7.127c-3.004,0.879-3.03,0.87-4.628-1.974c-0.303-0.544-0.632-0.664-1.167-0.528
		c-0.612,0.158-0.702,0.535-0.535,1.098c1.321,4.513,2.633,9.025,3.951,13.541c0.187,0.635,0.552,0.915,1.24,0.622
		c0.539-0.229,0.765-0.486,0.462-1.098c-0.213-0.422-0.277-0.924-0.4-1.391c-0.489-1.785,0.081-2.938,1.928-3.479
		c8.565-2.509,17.125-5.034,25.678-7.592c0.982-0.293,1.502-0.119,1.766,0.908c0.394,1.54,0.87,3.06,1.321,4.586
		c0.899,3.047,0.8,3.42-1.868,5.298c-0.664,0.467-0.732,0.886-0.439,1.556c0.413,0.928,0.936,0.471,1.503,0.209
		c1.44-0.676,2.877-1.359,4.351-1.958c0.973-0.396,1.134-0.879,0.824-1.907c-2.651-8.809-5.233-17.637-7.821-26.462
		C466.945,170.752,466.629,170.066,465.707,170.501z M405.038,130.843c0.619,3.598,2.41,6.625,4.897,9.202
		c5.859,6.068,15.096,3.981,17.925-3.984c0.915-2.58,1.097-5.272,1.283-7.972c0.142-2.068,0.109-4.167,0.78-6.165
		c1.204-3.588,4.955-4.39,7.553-1.639c2.63,2.779,2.56,5.733-0.341,8.528c-0.651,0.625-0.478,0.924-0.142,1.511
		c0.444,0.779,0.869,0.635,1.476,0.206c1.466-1.043,2.933-2.104,4.47-3.04c1.037-0.628,1.177-1.331,0.806-2.419
		c-0.77-2.261-1.924-4.307-3.406-6.139c-2.536-3.147-5.711-5.259-9.913-4.432c-4.306,0.847-6.713,3.885-7.838,8.007
		c-0.128,0.464-0.271,0.931-0.328,1.408c-0.426,3.433-0.657,6.902-1.296,10.293c-0.602,3.192-3.21,5.147-5.826,4.847
		c-2.816-0.315-5.26-3.198-5.446-6.226c-0.164-2.625,1.39-4.265,3.12-5.804c0.688-0.615,0.59-1.024,0.135-1.694
		c-0.6-0.892-1.024-0.274-1.502,0.048c-1.83,1.253-3.642,2.535-5.491,3.763C405.314,129.564,404.884,130.015,405.038,130.843z
		 M98.873,105.025c0.986,0.067,1.895,0.048,2.778,0.212c3.132,0.577,5.188,3.408,4.525,6.146c-1.106,4.551-5.981,6.542-9.958,4.062
		c-0.471-0.293-0.935-0.596-1.373-0.94c-0.612-0.487-1.035-0.361-1.547,0.222c-0.619,0.712-0.226,1.011,0.29,1.485
		c1.489,1.353,3.01,2.692,4.337,4.19c1.096,1.241,2.179,1.305,3.474,0.548c3.178-1.849,5.872-4.235,7.586-7.517
		c2.817-5.375,0.941-11.389-4.376-14.227c-2.392-1.279-4.995-1.498-7.67-1.353c-3.396,0.18-6.697,1.205-10.119,1.083
		c-1.966-0.068-3.452-0.934-4.306-2.751c-0.863-1.852-0.116-3.391,1.044-4.77c2.398-2.844,5.027-3.202,8.031-1.04
		c0.648,0.47,0.88,0.525,1.453-0.052c0.693-0.696,0.48-1.099-0.112-1.639c-1.328-1.218-2.655-2.445-3.919-3.733
		c-0.699-0.722-1.334-0.828-2.191-0.316c-3.419,2.036-6.246,4.628-7.734,8.4c-1.895,4.786-0.083,9.44,4.524,11.71
		c2.843,1.401,5.872,1.504,8.946,1.118C94.683,105.598,96.81,105.298,98.873,105.025z M137.693,48.943
		c1.972-0.232,2.526,0.821,3.074,1.903c3.974,7.759,7.951,15.518,11.93,23.271c1.16,2.264,1.08,2.603-1.089,3.994
		c-0.497,0.319-1.141,0.448-0.742,1.343c0.483,1.085,1.092,0.516,1.66,0.226c3.822-1.945,7.65-3.888,11.434-5.911
		c0.487-0.261,1.711-0.132,1.222-1.378c-0.555-1.398-1.302-0.441-1.947-0.145c-2.688,1.23-3.377,0.998-4.731-1.639
		c-3.848-7.515-7.708-15.022-11.55-22.54c-1.37-2.683-1.36-2.699,1.128-4.558c0.413-0.309,0.748-0.483,0.409-1.124
		c-0.335-0.641-0.661-0.815-1.286-0.493c-3.88,1.994-7.76,3.987-11.64,5.978c-0.548,0.28-0.625,0.618-0.303,1.163
		c0.303,0.512,0.58,0.657,1.141,0.374C136.952,49.133,137.563,48.991,137.693,48.943z M453.091,144.992
		c0.042,1.665-0.95,2.245-2.06,2.786c-7.889,3.858-15.79,7.704-23.645,11.633c-1.698,0.851-2.871,0.741-3.734-1.027
		c-0.316-0.65-0.484-1.533-1.612-0.866c-1.083,0.641-0.193,1.243,0.023,1.697c1.817,3.804,3.709,7.576,5.598,11.347
		c0.3,0.602,0.29,1.704,1.463,1.195c1.373-0.593,0.329-1.378,0.051-2.003c-1.127-2.583-0.882-3.286,1.683-4.542
		c7.58-3.717,15.159-7.44,22.729-11.164c2.833-1.395,2.852-1.414,4.586,1.127c0.38,0.561,0.689,0.753,1.315,0.448
		c0.554-0.271,0.677-0.593,0.402-1.146c-1.943-3.9-3.883-7.801-5.797-11.714c-0.284-0.576-0.623-0.676-1.148-0.425
		c-0.502,0.235-0.754,0.505-0.405,1.114C452.837,143.984,452.962,144.612,453.091,144.992z M298.89,56.985
		c0.058-0.232,0.123-0.499,0.188-0.77c1.985-8.545,3.96-17.093,5.958-25.638c0.706-3.028,0.732-3.047,3.703-2.699
		c0.535,0.058,0.902,0.245,1.044-0.486c0.129-0.618,0.155-1.085-0.59-1.259c-4.244-0.986-8.485-1.972-12.726-2.957
		c-0.561-0.132-0.903-0.039-0.98,0.647c-0.058,0.532-0.063,0.761,0.549,1.05c3.062,1.437,3.019,1.475,2.274,4.69
		c-1.914,8.207-3.806,16.417-5.7,24.626c-0.584,2.539-0.964,2.837-3.535,2.419c-0.735-0.119-1.187-0.132-1.393,0.699
		c-0.206,0.837,0.406,0.94,0.915,1.06c4.44,1.04,8.895,2.036,13.329,3.085c1.089,0.258,1.469-0.299,1.354-1.163
		c-0.097-0.686-0.915-0.432-1.412-0.603C300.511,59.211,298.954,58.957,298.89,56.985z M164.392,426.975
		c-0.635,2.657-2.021,4.693-2.865,6.947c-0.438,1.172-0.947,1.514-2.121,0.851c-1.134-0.645-2.404-1.063-3.558-1.682
		c-0.76-0.402-1.137-0.367-1.592,0.451c-1.985,3.562-2.014,3.547,1.672,5.23c0.377,0.17,0.731,0.426,1.131,0.522
		c1.495,0.36,1.537,1.094,0.921,2.39c-2.643,5.556-5.188,11.16-7.767,16.748c-1.637,3.529-1.592,3.446,1.869,5.172
		c1.45,0.723,1.985,0.507,2.656-0.976c4.641-10.277,9.384-20.506,14.105-30.743c1.872-4.062,1.885-4.058-2.285-5.907
		c-0.748-0.327-1.663-1.046-2.243-0.847C163.077,425.558,164.782,426.514,164.392,426.975z M161.779,468.031
		c0.857-0.168,0.867-0.999,1.128-1.556c4.666-10.104,9.313-20.218,13.947-30.328c2.198-4.792,2.179-4.772-2.816-6.799
		c-0.832-0.335-1.154-0.239-1.535,0.595c-5.256,11.509-10.55,22.995-15.836,34.486c-0.161,0.354-0.619,0.844-0.151,1.088
		C158.228,466.414,160,467.193,161.779,468.031z M146.861,450.645c1.55-0.88,2.852-1.675,4.206-2.364
		c0.889-0.45,1.122-0.896,0.792-1.942c-1.005-3.175-2.288-6.229-3.886-9.135c-0.619-1.123-0.555-1.664,0.496-2.499
		c3.558-2.847,6.31-6.38,8.417-10.438c0.564-1.079,0.387-1.526-0.677-1.98c-2.159-0.925-4.273-1.958-6.413-2.922
		c-0.271-0.122-0.612-0.477-0.896-0.109c-0.139,0.184-0.193,0.597-0.081,0.779c1.408,2.297,0.116,4.152-1.047,5.927
		c-3.732,5.708-9.023,9.47-15.285,11.981c-0.744,0.3-2.227,0.188-1.375,1.801c0.631,1.205,0.451,3.198,2.871,2.458
		c2.717-0.839,5.398-1.743,7.86-3.171c1.07-0.614,1.489-0.305,1.927,0.706C145.272,443.183,146.078,446.821,146.861,450.645z
		 M365.566,453.324c-0.058-0.135-0.142-0.325-0.231-0.509c-1.702-3.553-3.43-7.086-5.086-10.658
		c-0.418-0.898-0.857-0.612-1.46-0.321c-2.11,1.021-4.244,2.003-6.361,3.018c-7.089,3.411-14.163,6.86-21.286,10.214
		c-1.243,0.583-1.45,1.146-0.718,2.222c0.229,0.338,0.409,0.728,0.531,1.121c0.516,1.717,1.276,1.938,2.979,1.082
		c6.909-3.465,13.931-6.716,20.883-10.107c1.062-0.521,1.547-0.377,2.004,0.699c0.787,1.843,1.676,3.637,2.559,5.431
		c0.206,0.429,0.283,1.176,1.135,0.747c1.544-0.77,3.1-1.504,4.659-2.244C365.451,453.882,365.612,453.705,365.566,453.324z
		 M70.301,380.581c-0.51,0.104-0.665,0.419-0.632,0.773c0.148,1.472-0.86,2.238-1.808,3.06c-1.73,1.498-3.368,3.121-5.191,4.483
		c-1.251,0.931-1.051,1.517-0.155,2.532c5.646,6.396,11.237,12.838,16.835,19.273c2.281,2.621,2.204,2.554,4.892,0.412
		c1.218-0.97,0.993-1.514,0.103-2.516c-4.428-4.973-8.708-10.078-13.2-14.99c-1.489-1.62-1.431-2.499,0.338-3.72
		c1.409-0.97,3.4-2.155,3.625-3.491c0.226-1.372-1.911-2.622-3.003-3.933c-0.399-0.479-0.799-0.964-1.218-1.421
		C70.707,380.849,70.468,380.711,70.301,380.581z M352.921,440.981c0.609-0.293,1.167-0.569,1.728-0.84
		c3.738-1.804,3.738-1.804,1.992-5.431c-1.45-3.002-1.45-3.002,1.656-4.441c2.668-1.23,2.571-1.188,1.481-3.72
		c-0.605-1.408-1.204-1.769-2.533-0.898c-0.86,0.562-1.897,0.85-2.777,1.388c-0.954,0.58-1.38,0.287-1.805-0.638
		c-1.186-2.57-2.5-5.082-3.66-7.663c-0.452-1.008-0.89-1.181-1.851-0.663c-1.521,0.818-3.119,1.495-4.653,2.281
		c-0.403,0.206-1.037,0.254-1.09,0.847c-0.07,0.763,0.664,0.506,1.038,0.702c0.986,0.512,1.456,1.434,1.915,2.377
		c2.487,5.163,4.975,10.329,7.502,15.473C352.097,440.219,352.038,441.088,352.921,440.981z M446.053,309.217
		c-0.017,3.987,3.123,7.153,7.093,7.15c3.919-0.004,7.122-3.256,7.087-7.201c-0.035-3.862-3.171-6.996-7.028-7.035
		C449.201,302.089,446.069,305.197,446.053,309.217z M40.369,308.25c0,3.998,2.936,6.977,6.884,6.99
		c3.918,0.01,6.935-2.996,6.958-6.935c0.022-3.927-2.981-6.974-6.907-7.002C43.397,301.268,40.369,304.305,40.369,308.25z"/>
	<path fill-rule="evenodd" clip-rule="evenodd" fill="#FFFFFF" d="M379.308,190.657c0,15.828,0.13,31.654-0.048,47.482
		c-0.106,9.151-1.112,18.259-2.389,27.33c-0.247,1.787-1.34,1.05-2.088,0.934c-6.071-0.957-12.13-2.007-18.198-3.009
		c-7.782-1.282-15.606-2.257-23.432-3.227c-8.939-1.105-17.898-1.975-26.873-2.729c-6.63-0.557-13.271-1.009-19.913-1.355
		c-16.849-0.883-33.716-1.128-50.583-0.822c-13.445,0.242-26.877,0.896-40.296,1.923c-10.57,0.812-21.121,1.82-31.643,3.061
		c-11.615,1.372-23.174,3.143-34.708,5.062c-1.976,0.329-3.955,0.664-5.894,1.153c-1.566,0.393-2.102-0.164-2.295-1.668
		c-1.108-8.6-2.107-17.213-2.23-25.89c-0.471-32.897-0.045-65.799-0.226-98.696c-0.013-1.685,0.729-1.636,1.972-1.659
		c35.655-0.596,69.867-7.53,102.022-23.348c8.792-4.325,17.112-9.431,24.924-15.347c0.918-0.696,1.573-1.189,2.826-0.242
		c19.172,14.468,40.751,23.889,63.802,30.166c17.448,4.754,35.211,7.573,53.268,8.484c3.396,0.174,6.8,0.342,10.197,0.255
		c1.637-0.039,1.888,0.46,1.881,1.945c-0.051,16.732-0.031,33.465-0.031,50.197C379.337,190.657,379.321,190.657,379.308,190.657z
		 M197.122,189.504c-0.3,27.783,22.114,51.331,50.753,51.881c29.082,0.563,53.006-22.359,52.994-51.778
		c-0.007-28.724-22.778-51.83-51.962-51.785C218.433,137.874,196.861,162.697,197.122,189.504z M329.454,176.086
		c-2.746,2.226-4.983,4.764-5.937,8.197c-0.29,1.043,0.006,2.039,0.677,2.938c0.847,1.124,1.905,2.013,2.959,2.912
		c1.804,1.523,3.698,2.938,5.201,4.786c0.696,0.856,1.192,1.752,0.708,2.844c-0.464,1.053-1.462,0.566-2.211,0.58
		c-4.878,0.062-4.811,0.023-3.398,4.718c0.464,1.546,1.208,2.11,2.794,2.084c4.582-0.074,9.168-0.013,13.753-0.032
		c5.976-0.016,4.538,0.551,6.333-4.596c0.023-0.064,0.062-0.122,0.087-0.187c0.57-1.369,0.304-2.113-1.373-1.984
		c-1.114,0.08-2.243,0.02-3.867,0.02c2.301-2.31,4.074-4.236,5.56-6.407c3.426-4.999,3.181-6.986-1.369-10.986
		c-2.243-1.971-4.474-3.945-6.71-5.926c-2.288-2.029-2.701-4.516-1.898-7.375c0.304-1.083,1.067-2.045,0.996-3.321
		c-3.113,1.656-7.947,6.577-9.35,9.396c-1.201,2.422-0.673,4.573,0.983,6.542c1.031,1.224,2.25,2.261,3.57,3.169
		c1.831,1.266,3.61,2.586,5.134,4.223c1.474,1.578,1.827,3.343,1.131,5.375c-0.431,1.253-1.141,2.355-1.75,3.521
		c-1.024,1.964-2.555,2.09-4.434,1.559c0.944-1.62,1.905-3.06,2.652-4.603c1.18-2.435,0.877-3.949-1.212-5.698
		c-1.753-1.465-3.687-2.706-5.511-4.087C330.488,181.868,328.993,179.517,329.454,176.086z M173.4,197.061
		c0-3.881-0.045-7.759,0.025-11.641c0.026-1.292-0.425-1.681-1.669-1.655c-2.907,0.067-5.82-0.016-8.733,0.036
		c-2.295,0.039-3.365,1.172-3.371,3.523c-0.019,7.067,0.02,14.13-0.032,21.197c-0.01,1.313,0.338,1.881,1.734,1.855
		c3.464-0.062,6.932-0.055,10.396-0.003c1.237,0.02,1.702-0.383,1.676-1.675C173.354,204.819,173.4,200.938,173.4,197.061z
		 M142.811,197.076c0,3.746,0.083,7.492-0.039,11.231c-0.058,1.704,0.529,2.139,2.146,2.081c3.255-0.109,6.516-0.08,9.777-0.006
		c1.347,0.029,1.811-0.399,1.798-1.778c-0.051-7.141-0.01-14.281-0.036-21.419c-0.009-2.396-1.002-3.356-3.451-3.388
		c-2.778-0.039-5.553,0.058-8.321-0.039c-1.45-0.052-1.94,0.409-1.908,1.881C142.862,189.449,142.804,193.266,142.811,197.076z
		 M179.819,201.976c0-3.888,0-7.778,0.006-11.663c0.006-1.195,0.219-2.248-1.698-2.277c-1.879-0.026-1.744,0.917-1.74,2.161
		c0.022,7.012-0.022,14.026,0.042,21.042c0.013,1.366-0.38,1.769-1.747,1.736c-3.886-0.087-7.779-0.009-11.672-0.039
		c-1.063-0.007-1.808,0.013-2.398,1.285c-1.057,2.277-4.009,2.232-5.059-0.055c-0.542-1.186-1.241-1.234-2.243-1.23
		c-3.893,0.022-7.786-0.058-11.672,0.045c-1.534,0.042-2.017-0.36-1.998-1.955c0.09-7.083-0.019-14.169,0.084-21.251
		c0.025-1.655-0.664-1.781-1.947-1.678c-1.347,0.11-1.489,0.947-1.489,2.022c0.013,7.917,0.039,15.834-0.02,23.751
		c-0.01,1.623,0.561,2.222,2.192,2.187c4.096-0.074,8.198,0.003,12.297-0.042c1.096-0.009,1.866,0.216,2.662,1.125
		c2.637,2.999,6.852,2.947,9.462-0.087c0.735-0.854,1.463-1.043,2.475-1.034c4.241,0.036,8.479-0.032,12.716,0.045
		c1.386,0.023,1.798-0.447,1.779-1.797C179.781,210.169,179.826,206.072,179.819,201.976z M338.451,207.541
		c-1.456,0-2.913,0.039-4.37-0.013c-1.212-0.045-1.604,0.46-1.424,1.626c1.063,6.629,2.114,13.257,3.139,19.886
		c0.235,1.521,1.05,2.078,2.562,2.064c1.47-0.012,2.601-0.215,2.864-1.948c1.022-6.632,2.066-13.257,3.12-19.882
		c0.193-1.23-0.193-1.813-1.521-1.752C341.371,207.589,339.908,207.538,338.451,207.541z"/>
	<path fill-rule="evenodd" clip-rule="evenodd" fill="#FFFFFF" d="M231.853,263.072c7.773-0.293,15.539-0.484,23.312-0.312
		c14.073,0.3,28.146,0.67,42.185,1.671c12.855,0.915,25.685,2.132,38.469,3.743c12.694,1.594,25.327,3.575,37.928,5.791
		c1.044,0.181,1.544,0.44,1.25,1.736c-6.832,30.372-19.735,57.775-39.768,81.738c-1.134,1.359-1.65,0.976-2.655-0.032
		c-27.322-27.38-54.683-54.726-81.978-82.135c-1.379-1.382-2.046-1.25-3.339,0.048c-27.257,27.349-54.572,54.643-81.83,81.99
		c-1.205,1.211-1.708,1.327-2.894-0.087c-19.819-23.683-32.523-50.815-39.458-80.779c-0.4-1.726-0.083-2.251,1.812-2.593
		c11.163-2.006,22.372-3.729,33.618-5.204c9.745-1.276,19.529-2.293,29.33-3.147C202.481,264.222,217.15,263.406,231.853,263.072z"
		/>
	<path fill-rule="evenodd" clip-rule="evenodd" fill="#FFFFFF" d="M312.947,379.857c-0.562,0.511-0.999,0.937-1.463,1.333
		c-11.602,9.872-24.093,18.472-37.293,26.065c-7.74,4.455-15.681,8.529-23.761,12.337c-1.021,0.483-1.846,0.551-2.894,0.055
		c-21.911-10.333-42.542-22.678-61.079-38.377c-1.373-1.163-1.328-1.688-0.097-2.918c20.354-20.314,40.673-40.663,60.927-61.073
		c1.457-1.47,2.102-1.299,3.458,0.067c20.209,20.353,40.493,40.641,60.75,60.948C311.98,378.781,312.425,379.293,312.947,379.857z
		 M259,374.149c2.694-2.2,3.558-4.217,2.739-6.37c-0.709-1.869-3.074-2.838-6.239-2.642c-2.403,0.147-4.396,1.069-5.263,3.369
		c-1.009,2.673,0.396,4.621,2.646,6.145c-0.845,0.706-1.624,1.263-2.292,1.942c-3.065,3.092-1.95,7.562,2.215,8.832
		c1.891,0.576,3.86,0.576,5.735,0.006c2.366-0.719,3.938-2.312,4.331-4.812c0.361-2.271-0.631-4.02-2.407-5.383
		C259.985,374.871,259.492,374.517,259,374.149z M241.314,374.168c0.683-0.617,1.357-1.12,1.889-1.742
		c2.255-2.644,1.25-6.103-2.082-7.047c-1.688-0.477-3.429-0.464-5.118,0.059c-2.011,0.617-3.384,1.945-3.754,4.035
		c-0.339,1.887,0.619,3.321,2.049,4.483c0.28,0.231,0.809,0.294,0.757,0.848c-0.715,0.566-1.469,1.062-2.101,1.687
		c-3.081,3.048-2.018,7.634,2.104,8.902c2.163,0.667,4.39,0.646,6.513-0.234c2.397-0.995,3.583-2.957,3.596-5.527
		C245.181,376.945,243.364,375.589,241.314,374.168z M277.047,370.104c1.218-0.979,0.87-2.383,1.018-3.63
		c0.106-0.905-0.303-1.186-1.224-1.14c-2.146,0.1-4.306,0.167-6.452,0.08c-1.502-0.061-2.095,0.444-2.107,1.966
		c-0.01,1.522-0.188,3.049-0.436,4.551c-0.216,1.297,0.14,1.816,1.499,2.106c1.911,0.402,3.664,1.291,4.715,3.117
		c1.286,2.229,0.635,5.18-1.376,6.206c-2.24,1.142-3.807,0.297-4.911-2.683c-0.13-0.341-0.22-0.719-0.654-0.627
		c-0.465,0.09-0.571,0.521-0.661,0.937c-0.831,3.861,0.103,4.995,4.055,4.776c0.957-0.058,1.936-0.226,2.849-0.515
		c2.99-0.967,4.934-3.466,5.124-6.41c0.213-3.205-1.477-5.23-4.145-6.587c-1.034-0.527-2.166-0.907-3.294-1.207
		c-0.67-0.178-0.989-0.413-0.876-1.105c0.083-0.518-0.077-1.117,0.58-1.427C272.239,367.811,276.106,368.744,277.047,370.104z
		 M225.143,374.381c0-2.563-0.058-5.128,0.022-7.688c0.058-1.839-0.65-1.865-1.924-1.012c-1.495,1.002-3.01,1.968-4.479,3.005
		c-0.561,0.396-1.676,0.689-1.128,1.633c0.477,0.828,1.289,0.074,1.814-0.209c1.447-0.773,1.776-0.277,1.75,1.172
		c-0.065,3.324-0.065,6.651,0,9.976c0.029,1.662-0.02,3.095-2.275,2.957c-0.412-0.025-0.87,0.161-0.889,0.67
		c-0.029,0.744,0.596,0.634,1.044,0.638c2.562,0.02,5.124,0.016,7.689,0.006c0.464,0,1.102,0.101,1.173-0.531
		c0.064-0.587-0.483-0.808-0.999-0.814c-1.605-0.013-1.863-0.947-1.817-2.322C225.204,379.371,225.143,376.877,225.143,374.381z"/>
	<path fill-rule="evenodd" clip-rule="evenodd" fill="#FFFFFF" d="M85.402,382.275c-3.216,0.01-5.73-2.428-5.756-5.579
		c-0.025-3.545,3.049-6.566,6.677-6.576c3.268-0.01,5.724,2.374,5.756,5.569C92.112,379.212,89.011,382.27,85.402,382.275z"/>
	<path fill-rule="evenodd" clip-rule="evenodd" fill="#FFFFFF" d="M99.275,388.292c-0.532,0.985-1.382,1.508-2.143,2.039
		c-0.567,0.396-0.857-0.415-1.186-0.757c-0.757-0.793-1.392-1.714-2.185-2.471c-0.799-0.766-0.574-1.134,0.12-1.913
		c1.182-1.324,1.905-1.228,2.865,0.168C97.474,386.421,98.428,387.325,99.275,388.292z"/>
	<path fill-rule="evenodd" clip-rule="evenodd" fill="#FFFFFF" d="M43.237,173.113c4.083,0.125,7.908,1.23,11.453,3.25
		c3.78,2.148,6.49,5.092,6.117,9.781c-0.355,4.506-2.797,7.778-6.742,9.824c-4.821,2.506-9.791,1.958-14.734,0.28
		c-0.915-0.309-1.811-0.683-2.684-1.098c-5.286-2.528-7.616-6.255-7.067-11.263c0.535-4.912,4.418-9.128,9.526-10.326
		C40.458,173.242,41.825,173,43.237,173.113z"/>
	<path fill-rule="evenodd" clip-rule="evenodd" fill="#FFFFFF" d="M402.395,100.238c-1.354-0.045-5.065-2.603-5.504-3.781
		c-0.206-0.541,0.213-0.741,0.477-1.011c3.069-3.118,6.144-6.226,9.224-9.334c0.426-0.428,0.729-0.863,1.498-0.248
		c2.823,2.242,3.736,5.804,1.905,8.896C408.286,97.649,405.953,99.849,402.395,100.238z"/>
	<path fill-rule="evenodd" clip-rule="evenodd" fill="#FFFFFF" d="M326.743,440.157c-0.016-3.191,2.298-5.61,5.372-5.623
		c3.081-0.02,5.791,2.731,5.794,5.868c0,3.072-2.475,5.623-5.458,5.623C329.286,446.025,326.76,443.424,326.743,440.157z"/>
	<path fill-rule="evenodd" clip-rule="evenodd" fill="#FFFFFF" d="M222.558,189.666c-0.445-12.987,10.358-26.498,26.487-26.469
		c13.732,0.029,26.216,10.529,26.339,26.279c0.123,15.875-12.794,26.688-26.677,26.568
		C233.856,215.912,222.242,203.483,222.558,189.666z"/>
	<path fill-rule="evenodd" clip-rule="evenodd" fill="#FFFFFF" d="M259.109,380.521c-0.032,1.919-1.469,3.42-3.232,3.372
		c-1.763-0.049-3.254-1.713-3.258-3.652c-0.006-1.861,1.569-4.294,2.739-4.229C256.873,376.095,259.142,378.822,259.109,380.521z"/>
	<path fill-rule="evenodd" clip-rule="evenodd" fill="#FFFFFF" d="M258.465,369.846c-0.094,1.267-0.51,2.616-2.081,2.961
		c-1.035,0.229-2.914-2.055-2.934-3.298c-0.022-1.536,1.058-2.661,2.578-2.584C257.724,367.012,258.438,368.04,258.465,369.846z"/>
	<path fill-rule="evenodd" clip-rule="evenodd" fill="#FFFFFF" d="M241.417,380.417c0.026,1.897-1.328,3.427-3.075,3.476
		c-1.846,0.058-3.438-1.626-3.435-3.641c0-1.793,1.566-4.238,2.707-4.231C239.058,376.03,241.401,378.735,241.417,380.417z"/>
	<path fill-rule="evenodd" clip-rule="evenodd" fill="#FFFFFF" d="M238.465,366.906c1.527,0.021,2.313,1.162,2.346,2.65
		c0.029,1.385-0.412,2.831-2.021,3.23c-1.041,0.261-3.026-1.92-3.084-3.182C235.642,368.155,236.77,366.954,238.465,366.906z"/>
</g>
</svg>
