<?xml version="1.0" encoding="utf-8"?>
<!-- Generator: Adobe Illustrator 16.0.4, SVG Export Plug-In . SVG Version: 6.00 Build 0)  -->
<!DOCTYPE svg PUBLIC "-//W3C//DTD SVG 1.1//EN" "http://www.w3.org/Graphics/SVG/1.1/DTD/svg11.dtd">
<svg version="1.1" id="Layer_1" xmlns="http://www.w3.org/2000/svg" xmlns:xlink="http://www.w3.org/1999/xlink" x="0px" y="0px"
	 width="200px" height="200px" viewBox="0 0 200 200" enable-background="new 0 0 200 200" xml:space="preserve">
<g>
	<path fill="none" stroke-width="3" stroke="#FFFFFF" stroke-miterlimit="10" d="M87.481,150.094l62.403-62.405L190,127.806V10.001H10v179.998
		l58.694-58.693L87.481,150.094z M47.575,78.134c-11.663,0-21.119-9.456-21.119-21.119c0-11.66,9.456-21.119,21.119-21.119
		s21.119,9.458,21.119,21.119C68.694,68.678,59.238,78.134,47.575,78.134z"/>
	<polygon fill="none" stroke-width="4" stroke="#FFFFFF" stroke-miterlimit="10" points="87.481,150.094 127.389,189.999 190,189.999 190,127.806
		149.885,87.688 	"/>
	<polygon fill="none" stroke-width="3" stroke="#FFFFFF" stroke-miterlimit="10" points="87.481,150.094 68.694,131.306 10,189.999 47.575,189.999
		127.389,189.999 	"/>
	<path fill="none" stroke-width="3" stroke="#FFFFFF" stroke-miterlimit="10" d="M47.575,35.896c-11.663,0-21.119,9.458-21.119,21.119
		c0,11.663,9.456,21.119,21.119,21.119s21.119-9.456,21.119-21.119C68.694,45.355,59.238,35.896,47.575,35.896z"/>
</g>
</svg>
