<?xml version="1.0" encoding="utf-8"?>
<!-- Generator: Adobe Illustrator 16.0.4, SVG Export Plug-In . SVG Version: 6.00 Build 0)  -->
<!DOCTYPE svg PUBLIC "-//W3C//DTD SVG 1.1//EN" "http://www.w3.org/Graphics/SVG/1.1/DTD/svg11.dtd">
<svg version="1.1" id="Layer_1" xmlns="http://www.w3.org/2000/svg" xmlns:xlink="http://www.w3.org/1999/xlink" x="0px" y="0px"
	 width="200px" height="200px" viewBox="0 0 200 200" enable-background="new 0 0 200 200" xml:space="preserve">
<path fill="none" stroke="#F0556A" stroke-width="5" stroke-miterlimit="10" d="M179.939,108.293
	c9.154-10.078,14.78-23.427,14.78-38.11c0-31.37-25.429-56.793-56.792-56.793c-14.688,0-28.031,5.632-38.113,14.775l-0.085-0.092
	l-0.008,0.012l-0.003-0.012l-0.088,0.092c-10.085-9.142-23.427-14.775-38.117-14.775c-31.364,0-56.793,25.423-56.793,56.788
	c0,14.689,5.624,28.037,14.784,38.116l-0.091,0.103L99.717,188.7h0.003l0,0l60.235-60.235l20.076-20.069l0,0l0,0L179.939,108.293z"
	/>
</svg>
